<?xml version="1.0" encoding="utf-8"?>
<!-- Generator: Adobe Illustrator 16.0.0, SVG Export Plug-In . SVG Version: 6.00 Build 0)  -->
<!DOCTYPE svg PUBLIC "-//W3C//DTD SVG 1.1//EN" "http://www.w3.org/Graphics/SVG/1.1/DTD/svg11.dtd">
<svg version="1.1" id="Layer_1" xmlns="http://www.w3.org/2000/svg" xmlns:xlink="http://www.w3.org/1999/xlink" x="0px" y="0px"
	 width="24px" height="24px" viewBox="0 0 24 24" enable-background="new 0 0 24 24" xml:space="preserve">
<polygon fill="#151313" points="17.25,3.938 17.227,3.938 16.723,5.294 16.074,7.118 15.871,7.706 18.643,7.706 17.791,5.414 "/>
<path fill="#151313" d="M0,0v24h24V0H0z M3.1,2.3h3.096v0.396c-0.624,0-0.937,0.176-0.937,0.527c0,0.208,0.101,0.469,0.301,0.78
	l0.371,0.588C6.444,5.424,6.887,6.1,7.263,6.62h0.024c0.28-0.552,0.708-1.368,1.284-2.448l0.252-0.468
	C9.055,3.264,9.248,2.96,9.4,2.792L8.452,2.828V2.3H10.9v0.396c-0.376,0.023-0.69,0.151-0.942,0.384S9.431,3.7,9.135,4.244
	L7.624,7.1C7.616,7.492,7.61,7.908,7.606,8.348c-0.005,0.44-0.002,0.748,0.006,0.924c0,0.425-0.012,0.74-0.036,0.948l0.996-0.048
	V10.7h-2.82v-0.396c0.344-0.016,0.566-0.111,0.666-0.288c0.1-0.176,0.15-0.447,0.15-0.815V8.828L6.58,7.46l-2.088-3.3
	C4.124,3.592,3.908,3.14,3.843,2.804L3.1,2.828V2.3z M12.04,21.639H9.352v-0.395c0.312-0.008,0.524-0.098,0.636-0.271
	c0.112-0.172,0.168-0.441,0.168-0.809c0-0.152-0.004-0.27-0.012-0.35l-0.312-5.111c-0.016,0.041-0.038,0.092-0.066,0.156
	C9.738,14.924,9.708,15,9.676,15.088l-2.7,6.672h-0.36l-0.672-1.5c-0.608-1.352-1.08-2.418-1.416-3.199
	c-0.336-0.779-0.665-1.602-0.984-2.465l-0.012,0.527C3.46,17.467,3.416,19.139,3.4,20.139c0,0.121-0.004,0.209-0.012,0.266
	c0,0.271-0.012,0.523-0.036,0.756l0.9-0.049v0.527H1.96v-0.395c0.336-0.008,0.554-0.104,0.654-0.283
	c0.1-0.18,0.158-0.453,0.174-0.822l0.264-6.42l-0.864,0.037V13.24h1.836l1.632,3.768c0.592,1.391,1.048,2.447,1.368,3.168h0.024
	c0.096-0.24,0.3-0.756,0.612-1.549c0.304-0.768,0.652-1.611,1.044-2.531c0.456-1.072,0.848-2.023,1.176-2.855h1.776v0.395
	c-0.288-0.008-0.5,0.07-0.636,0.234s-0.204,0.443-0.204,0.834l0.012,0.24l0.312,5.461c0.016,0.184,0.024,0.432,0.024,0.742
	l0.876-0.035V21.639z M21.042,21.699h-6.156v-0.551l0.145-0.205c1.399-1.928,2.771-3.967,4.115-6.119
	c0.305-0.473,0.561-0.832,0.768-1.08l-3.06,0.047c-0.479,0.018-0.836,0.186-1.067,0.506c-0.232,0.318-0.349,0.814-0.349,1.486H15.03
	l0.071-2.482h5.952v0.42l-4.309,6.539c-0.295,0.439-0.567,0.771-0.815,0.996l2.916-0.049c0.56-0.008,1.01-0.176,1.351-0.504
	c0.34-0.326,0.51-0.814,0.51-1.463h0.408L21.042,21.699z M21.391,10.814h-2.748v-0.396c0.472-0.008,0.708-0.199,0.708-0.576
	c0-0.152-0.04-0.34-0.12-0.564l-0.42-1.127l-3.12,0.072c-0.12,0.328-0.261,0.756-0.42,1.283c-0.08,0.264-0.181,0.54-0.3,0.828
	l0.936-0.048v0.528h-2.244v-0.396c0.2,0,0.36-0.046,0.48-0.139c0.119-0.092,0.218-0.211,0.294-0.359
	c0.075-0.148,0.166-0.37,0.271-0.666l0.119-0.336l2.473-6.732h0.287l2.676,6.828c0.088,0.217,0.164,0.45,0.229,0.702
	s0.092,0.458,0.084,0.618l0.816-0.048V10.814z"/>
</svg>
