<?xml version="1.0" encoding="utf-8"?>
<!-- Generator: Adobe Illustrator 16.0.0, SVG Export Plug-In . SVG Version: 6.00 Build 0)  -->
<!DOCTYPE svg PUBLIC "-//W3C//DTD SVG 1.1//EN" "http://www.w3.org/Graphics/SVG/1.1/DTD/svg11.dtd">
<svg version="1.1" id="Layer_1" xmlns="http://www.w3.org/2000/svg" xmlns:xlink="http://www.w3.org/1999/xlink" x="0px" y="0px"
	 width="24px" height="24px" viewBox="0 0 24 24" enable-background="new 0 0 24 24" xml:space="preserve">
<polygon fill="#161414" points="9.132,9.378 9.108,9.378 8.604,10.734 7.956,12.559 7.752,13.146 10.524,13.146 9.672,10.854 "/>
<path fill="#161414" d="M0,0v24h24V0H0z M20.625,8.25V7.854h2.808v0.42l-3.413,5.182l-0.092-1.613
	c0.535-0.809,1.07-1.621,1.597-2.465c0.304-0.472,0.56-0.832,0.769-1.08l-1.686,0.026C20.612,8.299,20.625,8.276,20.625,8.25z
	 M17.48,7.854h0.329c-0.111,0.28-0.231,0.575-0.354,0.878L17.48,7.854z M5.979,16.255H3.16v-0.396
	c0.344-0.016,0.565-0.111,0.666-0.287c0.1-0.176,0.149-0.448,0.149-0.816v-0.372l0.013-1.368l-2.089-3.3
	C1.532,9.146,1.315,8.694,1.252,8.358L0.508,8.383V7.854h3.096v0.396c-0.624,0-0.936,0.176-0.936,0.527c0,0.208,0.1,0.469,0.3,0.78
	l0.372,0.588c0.512,0.832,0.956,1.508,1.332,2.028h0.024c0.279-0.552,0.708-1.368,1.283-2.448l0.252-0.468
	c0.232-0.44,0.425-0.744,0.576-0.912L5.859,8.383V7.854h2.448v0.396C7.932,8.274,7.618,8.402,7.366,8.635S6.84,9.255,6.544,9.799
	l-1.512,2.855c-0.009,0.393-0.015,0.809-0.019,1.249c-0.004,0.439-0.002,0.748,0.006,0.924c0,0.424-0.012,0.74-0.036,0.947
	l0.996-0.047V16.255z M13.271,16.255h-2.747v-0.396c0.472-0.008,0.708-0.199,0.708-0.576c0-0.152-0.041-0.34-0.12-0.564l-0.42-1.128
	l-3.12,0.072c-0.12,0.329-0.261,0.757-0.42,1.284c-0.08,0.264-0.181,0.54-0.301,0.828l0.937-0.048v0.528H6.479v-0.527
	c0-0.137-0.056-0.268-0.154-0.361c-0.002-0.002-0.006-0.003-0.008-0.005l0.001-0.001c0.075-0.148,0.166-0.37,0.27-0.666l0.12-0.336
	L9.18,7.626h0.288l2.676,6.828c0.088,0.217,0.164,0.45,0.229,0.702c0.063,0.252,0.092,0.458,0.084,0.618l0.815-0.048V16.255z
	 M17.32,15.858v0.396h-0.056v-0.553l0.144-0.203c0.238-0.327,0.47-0.677,0.706-1.011c0.007,0.082,0.011,0.171,0.011,0.29
	c0,0.374-0.067,0.507-0.088,0.539c-0.008,0.006-0.075,0.037-0.229,0.041C17.537,15.365,17.32,15.587,17.32,15.858z M20.508,16.255
	H17.82v-0.396c0.313-0.008,0.523-0.098,0.637-0.27c0.111-0.172,0.168-0.442,0.168-0.811c0-0.152-0.005-0.268-0.013-0.348
	l-0.312-5.112c-0.017,0.04-0.039,0.092-0.066,0.156c-0.028,0.063-0.059,0.14-0.09,0.228l-2.7,6.672h-0.36l-0.672-1.5
	c-0.607-1.352-1.08-2.418-1.416-3.198c-0.336-0.779-0.664-1.602-0.984-2.466L12,9.738c-0.032,1.065-0.06,1.985-0.08,2.773
	l-0.518-1.319l0.118-2.858L10.656,8.37V7.854h1.836l1.633,3.768c0.592,1.392,1.047,2.448,1.367,3.168h0.024
	c0.096-0.24,0.3-0.756,0.612-1.548c0.303-0.768,0.651-1.612,1.043-2.532c0.457-1.071,0.849-2.023,1.177-2.855h1.776V8.25
	c-0.289-0.008-0.5,0.07-0.637,0.234s-0.204,0.442-0.204,0.834l0.013,0.24l0.312,5.46c0.017,0.184,0.024,0.432,0.024,0.744
	l0.875-0.036V16.255z M23.42,16.255h-2.412v-0.488l0.217-0.004c0.56-0.008,1.01-0.176,1.35-0.504s0.51-0.816,0.51-1.465h0.408
	L23.42,16.255z"/>
</svg>
