<?xml version="1.0" encoding="utf-8"?>
<!-- Generator: Adobe Illustrator 16.0.0, SVG Export Plug-In . SVG Version: 6.00 Build 0)  -->
<!DOCTYPE svg PUBLIC "-//W3C//DTD SVG 1.1//EN" "http://www.w3.org/Graphics/SVG/1.1/DTD/svg11.dtd">
<svg version="1.1" id="Layer_1" xmlns="http://www.w3.org/2000/svg" xmlns:xlink="http://www.w3.org/1999/xlink" x="0px" y="0px"
	 width="24px" height="24px" viewBox="0 0 24 24" enable-background="new 0 0 24 24" xml:space="preserve">
<path fill="#141211" d="M0,0v24h24V0H0z M17.6,19.7H6.27v-1.65l6.578-10.032c0.645-0.982,1.158-1.701,1.539-2.156V5.84l-3.762-0.11
	C9.76,5.701,9.078,5.95,8.579,6.478C8.081,7.006,7.831,7.842,7.831,8.986H6.38L6.512,4.3h11.197v1.65l-6.336,9.592
	c-0.777,1.158-1.407,2.023-1.892,2.596v0.021l4.026,0.088c0.865,0.016,1.543-0.238,2.035-0.758c0.49-0.521,0.736-1.354,0.736-2.498
	h1.451L17.6,19.7z"/>
</svg>
